<svg width="60" height="38" viewBox="0 0 60 38" fill="none" xmlns="http://www.w3.org/2000/svg">
<g id="Frame" clip-path="url(#clip0_1_4189)">
<path id="Vector" opacity="0.07" d="M55.2632 0.000976562H4.73684C2.05263 0.000976562 0 2.05931 0 4.75098V33.251C0 35.9426 2.21053 38.001 4.73684 38.001H55.2632C57.9474 38.001 60 35.9426 60 33.251V4.75098C60 2.05931 57.7895 0.000976562 55.2632 0.000976562Z" fill="black"/>
<path id="Vector_2" d="M55.2618 1.58386C56.9987 1.58386 58.4197 3.00886 58.4197 4.75053V33.2505C58.4197 34.9922 56.9987 36.4172 55.2618 36.4172H4.73553C2.99869 36.4172 1.57764 34.9922 1.57764 33.2505V4.75053C1.57764 3.00886 2.99869 1.58386 4.73553 1.58386H55.2618Z" fill="white"/>
<path id="Vector_3" d="M28.5673 18.9627V24.0294H26.96V11.521H31.2089C31.718 11.5124 32.2238 11.6047 32.6972 11.7928C33.1706 11.9808 33.6022 12.2608 33.9673 12.6167C34.3132 12.9403 34.592 13.3291 34.7879 13.7609C34.9839 14.1926 35.093 14.6589 35.1091 15.1329C35.1253 15.607 35.0481 16.0796 34.8819 16.5238C34.7158 16.9679 34.4641 17.3749 34.141 17.7214L33.9673 17.905C33.2252 18.6128 32.2336 18.9975 31.2089 18.9722L28.5673 18.9627ZM28.5673 13.0537V17.468H31.2484C31.8436 17.487 32.4184 17.2543 32.8352 16.8284C33.1334 16.5167 33.3336 16.124 33.411 15.6992C33.4883 15.2743 33.4394 14.836 33.2703 14.4388C33.1012 14.0416 32.8193 13.7031 32.4599 13.4652C32.1004 13.2274 31.6791 13.1008 31.2484 13.1012L28.5673 13.0537ZM38.8052 15.188C39.8315 15.1405 40.8357 15.4857 41.6126 16.1586C42.3152 16.8394 42.6894 17.7894 42.6389 18.7695V24.0484H41.1089V22.8355H41.0315C40.7571 23.2904 40.3692 23.6657 39.9059 23.9242C39.4426 24.1827 38.9201 24.3156 38.39 24.3096C37.5245 24.3377 36.6806 24.0362 36.0279 23.4657C35.7186 23.2127 35.4707 22.8925 35.3031 22.5294C35.1354 22.1662 35.0522 21.7695 35.06 21.3694C35.0417 20.965 35.1201 20.5621 35.2884 20.1941C35.4567 19.8262 35.7103 19.5039 36.0279 19.254C36.8069 18.6922 37.7499 18.4054 38.7089 18.4386C39.5252 18.407 40.3352 18.5859 41.0615 18.9627V18.6334C41.0669 18.3611 41.0104 18.0911 40.8963 17.844C40.7822 17.5968 40.6136 17.3789 40.4031 17.2068C39.9805 16.8215 39.4268 16.613 38.8557 16.6241C38.441 16.6202 38.0321 16.7224 37.6677 16.921C37.3033 17.1197 36.9954 17.4082 36.7731 17.7594L35.36 16.8664C35.7437 16.3151 36.2617 15.8714 36.8648 15.5776C37.4679 15.2838 38.1359 15.1497 38.8052 15.188ZM36.7731 21.4074C36.7693 21.6124 36.8159 21.8153 36.9087 21.9981C37.0014 22.1809 37.1376 22.338 37.3052 22.4555C37.6573 22.7342 38.0947 22.8814 38.5447 22.8719C39.2221 22.8704 39.871 22.6028 40.3542 22.1246C40.8358 21.6718 41.1089 21.04 41.1089 20.3782C40.5011 19.9449 39.7625 19.7357 39.0184 19.786C38.4406 19.7632 37.8708 19.9263 37.3921 20.2515C37.2025 20.3787 37.0469 20.5506 36.939 20.7521C36.8311 20.9536 36.7741 21.1786 36.7731 21.4074ZM51.4352 15.4699L46.0826 27.804H44.4279L46.4505 23.4847L42.9389 15.4699H44.6805L47.2257 21.6211L49.7031 15.4699H51.4352Z" fill="#5F6368"/>
<path id="Vector_4" d="M22.0823 17.8671C22.0823 17.3795 22.0444 16.8918 21.967 16.4105H15.1934V19.1765H19.0634C18.9846 19.6161 18.8181 20.0353 18.5739 20.4088C18.3297 20.7824 18.0129 21.1026 17.6423 21.3505V23.146H19.9539C20.6567 22.464 21.2093 21.6419 21.5759 20.7327C21.9425 19.8235 22.115 18.8473 22.0823 17.8671Z" fill="#4285F4"/>
<path id="Vector_5" d="M15.2036 24.8925C16.9504 24.9406 18.6499 24.3195 19.9562 23.1556L17.6415 21.3506C17.0853 21.7081 16.4551 21.9339 15.7989 22.0105C15.1426 22.0872 14.4776 22.0127 13.8543 21.7929C13.2311 21.5731 12.666 21.2136 12.2021 20.7419C11.7382 20.2702 11.3877 19.6986 11.1772 19.0706H8.80566V20.9231C9.39911 22.1154 10.3121 23.1183 11.4421 23.8194C12.5722 24.5206 13.8747 24.8921 15.2036 24.8925Z" fill="#34A853"/>
<path id="Vector_6" d="M11.1768 19.0798C10.8765 18.1889 10.8765 17.2237 11.1768 16.3327V14.4802H8.80522C8.29962 15.48 8.03613 16.5853 8.03613 17.7063C8.03613 18.8273 8.29962 19.9325 8.80522 20.9323L11.1768 19.0798Z" fill="#FBBC04"/>
<path id="Vector_7" d="M15.2036 13.3645C16.2251 13.3458 17.2127 13.7328 17.9509 14.4412L20.0036 12.394C18.6948 11.1621 16.9588 10.4902 15.1641 10.5209C13.8431 10.5275 12.5497 10.9009 11.4274 11.5996C10.3051 12.2982 9.39763 13.295 8.80566 14.4792L11.1772 16.3333C11.4545 15.4784 11.9921 14.7322 12.7144 14.1997C13.4366 13.6672 14.3072 13.3751 15.2036 13.3645Z" fill="#EA4335"/>
</g>
<defs>
<clipPath id="clip0_1_4189">
<rect width="60" height="38" fill="white"/>
</clipPath>
</defs>
</svg>
