<svg width="60" height="38" viewBox="0 0 60 38" fill="none" xmlns="http://www.w3.org/2000/svg">
<g id="Frame" clip-path="url(#clip0_1_4183)">
<path id="Vector" opacity="0.07" d="M55.2632 0H4.73684C2.05263 0 0 2.05833 0 4.75V33.25C0 35.9417 2.21053 38 4.73684 38H55.2632C57.9474 38 60 35.9417 60 33.25V4.75C60 2.05833 57.7895 0 55.2632 0Z" fill="black"/>
<path id="Vector_2" d="M55.2638 1.58377C57.0006 1.58377 58.4217 3.00877 58.4217 4.75044V33.2504C58.4217 34.9921 57.0006 36.4171 55.2638 36.4171H4.73748C3.00064 36.4171 1.57959 34.9921 1.57959 33.2504V4.75044C1.57959 3.00877 3.00064 1.58377 4.73748 1.58377H55.2638Z" fill="white"/>
<path id="Vector_3" d="M23.684 30.0835C29.7882 30.0835 34.7366 25.1213 34.7366 19.0002C34.7366 12.879 29.7882 7.91684 23.684 7.91684C17.5798 7.91684 12.6313 12.879 12.6313 19.0002C12.6313 25.1213 17.5798 30.0835 23.684 30.0835Z" fill="#EB001B"/>
<path id="Vector_4" d="M36.3168 30.0836C42.421 30.0836 47.3694 25.1214 47.3694 19.0002C47.3694 12.8791 42.421 7.9169 36.3168 7.9169C30.2126 7.9169 25.2642 12.8791 25.2642 19.0002C25.2642 25.1214 30.2126 30.0836 36.3168 30.0836Z" fill="#F79E1B"/>
<path id="Vector_5" d="M34.7378 19.0004C34.7378 15.2004 32.8431 11.8754 30.001 9.9754C27.1589 12.0337 25.2642 15.3587 25.2642 19.0004C25.2642 22.6421 27.1589 26.1254 30.001 28.0254C32.8431 26.1254 34.7378 22.8004 34.7378 19.0004Z" fill="#FF5F00"/>
</g>
<defs>
<clipPath id="clip0_1_4183">
<rect width="60" height="38" fill="white"/>
</clipPath>
</defs>
</svg>
