<svg width="60" height="38" viewBox="0 0 60 38" fill="none" xmlns="http://www.w3.org/2000/svg">
<g id="Frame" clip-path="url(#clip0_1_4197)">
<path id="Vector" opacity="0.07" d="M55.2632 0.000366211H4.73684C2.05263 0.000366211 0 2.0587 0 4.75037V33.2504C0 35.942 2.21053 38.0004 4.73684 38.0004H55.2632C57.9474 38.0004 60 35.942 60 33.2504V4.75037C60 2.0587 57.7895 0.000366211 55.2632 0.000366211Z" fill="black"/>
<path id="Vector_2" d="M55.2638 1.58377C57.0006 1.58377 58.4217 3.00877 58.4217 4.75044V33.2504C58.4217 34.9921 57.0006 36.4171 55.2638 36.4171H4.73748C3.00064 36.4171 1.57959 34.9921 1.57959 33.2504V4.75044C1.57959 3.00877 3.00064 1.58377 4.73748 1.58377H55.2638Z" fill="white"/>
<path id="Vector_3" d="M37.737 13.1422C38.0528 11.5589 37.737 10.4506 36.7897 9.50057C35.8423 8.39224 34.1055 7.91724 31.8949 7.91724H25.4213C24.9476 7.91724 24.6318 8.2339 24.4739 8.7089L22.1055 24.7006C22.1055 25.0172 22.2634 25.3339 22.5792 25.3339H26.8423L27.4739 19.9506L30.316 16.4672L37.737 13.1422Z" fill="#003087"/>
<path id="Vector_4" d="M37.7353 13.1424L37.4195 13.4591C36.63 17.8924 33.9458 19.4758 30.1564 19.4758H28.4195C27.9458 19.4758 27.63 19.7924 27.4721 20.2674L26.5248 26.4424L26.209 28.0258C26.209 28.3424 26.3669 28.6591 26.6827 28.6591H29.9985C30.4721 28.6591 30.7879 28.3424 30.7879 28.0258V27.8674L31.4195 24.0674V23.9091C31.4195 23.5924 31.8932 23.2758 32.209 23.2758H32.6827C35.9985 23.2758 38.5248 22.0091 39.1564 18.2091C39.4721 16.6258 39.3142 15.3591 38.5248 14.4091C38.3669 13.6174 38.0511 13.3008 37.7353 13.1424Z" fill="#3086C8"/>
<path id="Vector_5" d="M36.7899 12.8256C36.632 12.6672 36.4741 12.6672 36.3162 12.6672C36.1583 12.6672 36.0004 12.6672 35.8425 12.5089C35.3689 12.3506 34.7373 12.3506 34.1057 12.3506H29.3689C29.211 12.3506 29.0531 12.3506 29.0531 12.5089C28.7373 12.6672 28.5794 12.8256 28.5794 13.1422L27.4741 20.1089V20.2672C27.4741 19.7922 27.9478 19.4756 28.4215 19.4756H30.4741C34.4215 19.4756 36.9478 17.8922 37.7373 13.4589V13.1422C37.5794 12.9839 37.2636 12.8256 36.9478 12.8256H36.7899Z" fill="#012169"/>
</g>
<defs>
<clipPath id="clip0_1_4197">
<rect width="60" height="38" fill="white"/>
</clipPath>
</defs>
</svg>
