<svg width="60" height="38" viewBox="0 0 60 38" fill="none" xmlns="http://www.w3.org/2000/svg">
<g id="Frame" clip-path="url(#clip0_1_4203)">
<path id="Vector" opacity="0.07" d="M55.2632 0.000976562H4.73684C2.05263 0.000976562 0 2.05931 0 4.75098V33.251C0 35.9426 2.21053 38.001 4.73684 38.001H55.2632C57.9474 38.001 60 35.9426 60 33.251V4.75098C60 2.05931 57.7895 0.000976562 55.2632 0.000976562Z" fill="black"/>
<path id="Vector_2" d="M55.2618 1.58377C56.9987 1.58377 58.4197 3.00877 58.4197 4.75044V33.2504C58.4197 34.9921 56.9987 36.4171 55.2618 36.4171H4.73553C2.99869 36.4171 1.57764 34.9921 1.57764 33.2504V4.75044C1.57764 3.00877 2.99869 1.58377 4.73553 1.58377H55.2618Z" fill="white"/>
<path id="Vector_3" d="M44.6845 15.9922H44.2108C43.5792 17.5755 43.1055 18.3672 42.6319 20.7422H45.6319C45.1582 18.3672 45.1582 17.2589 44.6845 15.9922ZM49.2634 25.3339H46.5792C46.4213 25.3339 46.4213 25.3339 46.2634 25.1755L45.9477 23.7505L45.7898 23.4339H42.0003C41.8424 23.4339 41.6845 23.4339 41.6845 23.7505L41.2108 25.1755C41.2108 25.3339 41.0529 25.3339 41.0529 25.3339H37.7371L38.0529 24.5422L42.6319 13.7755C42.6319 12.9839 43.1055 12.6672 43.895 12.6672H46.2634C46.4213 12.6672 46.5792 12.6672 46.5792 12.9839L48.7898 23.2755C48.9476 23.9089 49.1055 24.3839 49.1055 25.0172C49.2634 25.1755 49.2634 25.1755 49.2634 25.3339ZM28.1055 24.8589L28.7371 22.0089C28.895 22.0089 29.0529 22.1672 29.0529 22.1672C30.1582 22.6422 31.2634 22.9589 32.3687 22.8005C32.6845 22.8005 33.1582 22.6422 33.474 22.4839C34.2634 22.1672 34.2634 21.3755 33.6319 20.7422C33.3161 20.4255 32.8424 20.2672 32.3687 19.9505C31.7371 19.6339 31.1055 19.3172 30.6319 18.8422C28.7371 17.2589 29.3687 15.0422 30.474 13.9339C31.4213 13.3005 31.895 12.6672 33.1582 12.6672C35.0529 12.6672 37.1055 12.6672 38.0529 12.9839H38.2108C38.0529 13.9339 37.895 14.7255 37.5792 15.6755C36.7898 15.3589 36.0003 15.0422 35.2108 15.0422C34.7371 15.0422 34.2634 15.0422 33.7898 15.2005C33.474 15.2005 33.3161 15.3589 33.1582 15.5172C32.8424 15.8339 32.8424 16.3089 33.1582 16.6255L33.9477 17.2589C34.5792 17.5755 35.2108 17.8922 35.6845 18.2089C36.474 18.6839 37.2634 19.4755 37.4213 20.4255C37.7371 21.8505 37.2634 23.1172 36.0003 24.0672C35.2108 24.7005 34.895 25.0172 33.7898 25.0172C31.5792 25.0172 29.8424 25.1755 28.4213 24.7005C28.2634 25.0172 28.2634 25.0172 28.1055 24.8589ZM22.5792 25.3339C22.7371 24.2255 22.7371 24.2255 22.895 23.7505C23.6845 20.2672 24.474 16.6255 25.1055 13.1422C25.2634 12.8255 25.2634 12.6672 25.5792 12.6672H28.4213C28.1055 14.5672 27.7898 15.9922 27.3161 17.7339C26.8424 20.1089 26.3687 22.4839 25.7371 24.8589C25.7371 25.1755 25.5792 25.1755 25.2634 25.1755M7.89502 12.9839C7.89502 12.8255 8.21081 12.6672 8.3687 12.6672H13.7371C14.5266 12.6672 15.1582 13.1422 15.3161 13.9339L16.7371 20.9005C16.7371 21.0589 16.7371 21.0589 16.895 21.2172C16.895 21.0589 17.0529 21.0589 17.0529 21.0589L20.3687 12.9839C20.2108 12.8255 20.3687 12.6672 20.5266 12.6672H23.8424C23.8424 12.8255 23.8424 12.8255 23.6845 12.9839L18.7898 24.5422C18.6319 24.8589 18.6319 25.0172 18.474 25.1755C18.3161 25.3339 18.0003 25.1755 17.6845 25.1755H15.3161C15.1582 25.1755 15.0003 25.1755 15.0003 24.8589L12.474 15.0422C12.1582 14.7255 11.6845 14.2505 11.0529 14.0922C10.1055 13.6172 8.3687 13.3005 8.05291 13.3005L7.89502 12.9839Z" fill="#142688"/>
</g>
<defs>
<clipPath id="clip0_1_4203">
<rect width="60" height="38" fill="white"/>
</clipPath>
</defs>
</svg>
